<?xml version="1.0" encoding="utf-8"?>
<!-- Generator: Adobe Illustrator 27.2.0, SVG Export Plug-In . SVG Version: 6.00 Build 0)  -->
<svg version="1.1" id="Layer_1" xmlns="http://www.w3.org/2000/svg" xmlns:xlink="http://www.w3.org/1999/xlink" x="0px" y="0px"
	 viewBox="0 0 722 144" style="enable-background:new 0 0 722 144;" xml:space="preserve">
<style type="text/css">
	.st0{fill:#009CDC;}
	.st1{fill:none;stroke:#009CDC;stroke-width:1.3659;stroke-miterlimit:10;}
</style>
<path class="st0" d="M16.6,32.2c-0.1,0-0.2,0.1-0.3,0.1c-3.6,4.6-6.2,9.7-6,15.8c0,0.4,0,0.8,0,1.3h5.4C15,43.5,13.2,37.3,16.6,32.2
	L16.6,32.2z"/>
<path class="st0" d="M19.2,87.4c-0.1-1-0.3-2-0.3-3h-1.8C17.7,85.2,18.7,86.4,19.2,87.4L19.2,87.4L19.2,87.4z"/>
<path class="st0" d="M80.6,49.5L80.6,49.5L80.6,49.5C80.6,49.5,80.6,49.5,80.6,49.5L80.6,49.5z"/>
<path class="st0" d="M81.4,48.7c-0.2-0.2-0.5-0.3-0.8-0.1c-0.2,0.4-0.6,0.6-1,0.9h2c0-0.1,0-0.1,0-0.2
	C81.5,49.1,81.4,48.9,81.4,48.7L81.4,48.7z"/>
<path class="st0" d="M57.7,84.4C57.7,84.4,57.7,84.4,57.7,84.4L57.7,84.4C57.7,84.4,57.7,84.4,57.7,84.4L57.7,84.4L57.7,84.4z"/>
<polygon class="st0" points="40.5,51 53,51 61.5,70.9 61.7,70.8 61.7,51 69.4,51 69.4,82.5 58.1,82.5 48.8,62.9 48.7,62.9 
	48.7,82.5 40.5,82.5 40.5,51 "/>
<polygon class="st0" points="76.2,51 85.1,51 85.1,82.6 76.2,82.6 76.2,51 "/>
<path class="st0" d="M90.8,82.7h13.8c9.8,0,15.8-5.6,15.8-15.9c0-9.8-5.9-15.6-15.8-15.6H90.8V82.7L90.8,82.7z M99.2,58.2h4
	c5.7,0,8.9,2.8,8.9,8.5c0,6.3-2.5,8.7-8.9,8.9h-4V58.2L99.2,58.2z"/>
<path class="st0" d="M34.8,69.5c0,9.2-4.2,13.7-13.8,13.7c-9.6,0-13.8-4.6-13.8-13.7V50.9h8.2V70c0,4.1,1.5,6.2,5.5,6.2
	c4,0,5.5-2.1,5.5-6.2V50.9h8.2V69.5L34.8,69.5z"/>
<path class="st0" d="M138.8,76.3c5.3,0,7.4-4.7,7.4-9.4c0-4.7-2-9.4-7.4-9.4c-5.3,0-7.4,4.7-7.4,9.4
	C131.4,71.6,133.4,76.3,138.8,76.3L138.8,76.3z M138.8,50.3c10,0,15.7,7.3,15.7,16.5c0,9.2-5.6,16.5-15.7,16.5
	c-10,0-15.7-7.3-15.7-16.5C123.1,57.6,128.8,50.3,138.8,50.3L138.8,50.3z"/>
<path class="st0" d="M106.8,26.3c0.4-0.5-0.3-1-0.1-1.6c-0.2-0.6-0.7-0.8-1.2-0.9c-0.5,0.5-1-0.5-1.5,0.1c0,0.3,0,0.6,0.2,0.8
	C105.3,25,105.4,26.6,106.8,26.3L106.8,26.3z"/>
<path class="st0" d="M87.9,17.2l-3.8,1.6c-0.3-0.1-0.9-0.3-1.1,0.1c-0.2,0.1,0,0.3,0.1,0.4c1.4,1.8,3.8,0.8,5.5,0.4
	c1.3,0.5,2.5-0.1,3.4-0.9v-0.2C91.1,17.5,89.4,17.4,87.9,17.2L87.9,17.2z"/>
<path class="st0" d="M109.8,31.6c-0.2-0.4-0.8-0.7-1-1.2c-0.2-1.4-1.5-2.8-2.8-3.5c-1-0.2-1.3-1.7-2.5-1.3c-1-0.9-2.4-0.2-3.4,0.3
	V26c-5.3-2.8-11.2-4.4-17.5-4.8c0.1-0.1,0.2-0.2,0.3-0.2c0.1-0.3,0-0.8,0-1.1c-0.2-0.3-0.5-0.6-0.8-0.4c-0.1,0.2-0.3,0.6-0.3,0.6
	v-7.1c12.7,0.3,24.3,5.4,32.9,13.5L109.8,31.6L109.8,31.6z M100.1,41.3L94.5,47c-3.4-2.9-7.8-4.8-12.6-5.1v-8
	C88.9,34.2,95.2,37,100.1,41.3L100.1,41.3z M79.3,21.2c-10.7,0.3-20.4,4.6-27.6,11.5L46,27c8.7-8.3,20.4-13.6,33.3-13.9V21.2
	L79.3,21.2z M79.3,31.3c-7.9,0.3-15.1,3.5-20.5,8.6l-5.3-5.3c6.8-6.4,15.8-10.4,25.8-10.8V31.3L79.3,31.3z M79.3,41.9
	c-5,0.3-9.5,2.3-13,5.5l-5.6-5.6c4.9-4.6,11.4-7.5,18.6-7.8V41.9L79.3,41.9z M128.7,49.5h2.7c-6-22.4-26.5-39-50.9-39
	c-24.3,0-44.8,16.5-50.9,39h2.7c2.2-7.8,6.3-14.8,11.7-20.6l5.7,5.7c-3.9,4.2-7,9.3-8.9,14.9h2.8c1.8-4.9,4.6-9.3,8-13l5.3,5.3
	c-2.1,2.3-3.8,4.9-5.2,7.7h2.9c1.1-2.1,2.5-4.1,4.1-5.9l5.6,5.6c-0.1,0.1-0.2,0.2-0.3,0.3h4.2c0,0,0,0,0,0c0.1-0.1,0.2-0.2,0.3-0.3
	c-0.1,0-0.2-0.1-0.3-0.1c3-2.6,6.8-4.3,11-4.6v4.9h2.6v-4.9c4.1,0.3,7.8,1.9,10.7,4.3L92,49.5h4.9c-0.2-0.2-0.4-0.4-0.6-0.7l5.6-5.6
	c1.3,1.4,2.4,2.9,3.5,4.5c0,0.1,0.1,0.1,0.1,0.2c0,0-0.1,0.1-0.1,0.1c0.1,0.5-0.3,1-0.6,1.4h5.7c0-0.3-0.3-0.7-0.7-0.7
	c-0.4-0.1-0.9,0-0.9-0.6c0.2-0.4,0.8-0.7,0.7-1.3c-0.3-0.4-0.8-0.1-1.2-0.1c-0.1-0.6,1.1-1.3,0.1-1.9c-0.6-0.1-1,0.5-1.5,0.5
	c-0.2-0.4-2.5-3.4-2.7-3.5c0,0-0.1,0-0.1-0.1c-0.1-1.4-1.8-2.3-1.9-3.7c-0.6-0.5-0.1-1.5-0.9-1.9c-0.4-0.3-0.9-0.7-1.5-0.4
	c-0.7-0.9-1.4-1.9-2.3-2.7c-0.3-0.1-0.4,0.1-0.6,0.2c0.1,0.7,1,1.2,0.9,2c-0.1,0-0.2,0-0.3,0.1c0.1,0.6,0.5,1.1,0.9,1.6
	c-4.8-3.3-10.6-5.4-16.9-5.6v-7.5c5.6,0.2,10.9,1.5,15.7,3.8c0,0,0,0.1,0,0.1c0,0,0,0,0,0c0.6,0.9,1.8,1.4,1.9,2.5
	c-0.6,1.6,2.1,1.6,0.9,3.2c-0.1,0.5,0.4,0.8,0.5,1.2c0.2,0.4-0.1,1.1,0.4,1.4c0.9,0.2,1.3-1,2.3-0.7c1.2,0.9,1.5,2.4,1.5,3.7
	c0.2,0.9,0.9,1.4,1.6,1.8c1.5-0.5,0.8,1.3,1.9,1.7c1.2,0.2,1.8,1.7,3.1,1.6c1.2,0.9,1.8,2.2,2.9,3.2c0,0.2,0.1,0.4,0.3,0.5
	c0.6,0.2,1-0.3,1.6-0.3c0.1,0.1,0.2,0.3,0.2,0.3c0.2,0.5,0.5,1.1,0.7,1.7h2.8c-0.4-1.1-0.8-2.2-1.3-3.3c0.1,0,0-0.6-0.1-0.8
	c-0.1-2.3-2.3-3.8-3.2-5.7c-0.4-0.3-0.8-0.7-1.1-1.1c-0.2-0.3-0.5-0.6-0.7-0.9c-0.3-0.4-0.6-0.9-1-1.3c-0.6-0.7-1.3-1.5-1.9-2.2
	l0.1-0.1l0.1,0c0,0,0,0,0,0l5.6-5.6C122.3,34.3,126.5,41.5,128.7,49.5L128.7,49.5z"/>
<path class="st0" d="M23.7,35.2c2.9-2.7,6.2-4.8,8.7-8c2.9-4,5.5-8.3,9.4-11.6c-5.2,2-11.1,4-14.3,9.5
	C25.3,28.1,25.3,31.9,23.7,35.2L23.7,35.2z"/>
<path class="st0" d="M23.1,43.4C28.7,39.5,34.6,34,34.6,27c-1.8,5-7.3,7.2-10.9,10.6c-1.9,1.9-3.5,4.2-4.3,6.3
	c-0.2,0.5-0.1-0.1-0.1-0.1c0.4-2,1.4-3.8,1.9-5.8c1.6-5.3,1.3-11.7,6.5-15.3c-2.7,0.7-5.1,2.3-6.9,4.6c-4.3,4.5-3.9,11.5-3.3,17.6
	c0.1,1.6-0.1,3.1-0.2,4.5h0.5C19.1,47.2,21.1,45.2,23.1,43.4L23.1,43.4z"/>
<path class="st0" d="M25.9,49c1.2-2.6,2.1-5.5,2.4-8.3c-0.5,1.2-1.3,2.3-2.2,3.3c-1.9,1.8-4,3.6-5.8,5.5h5.3
	C25.7,49.3,25.8,49.1,25.9,49L25.9,49z"/>
<path class="st0" d="M144,49.4c-1.1-5.6,0.7-10.9-0.6-16.4c-1-4.9-5.5-10.2-10.6-11.2c2.1,1.4,3.6,3.6,4.4,5.8
	c1.5,5.1,2.6,11,4.5,15.2c0.1,0.2,0,0.6-0.1,0.1c-0.4-0.9-1.2-2.3-2.6-4.1c-3.9-5.1-10.6-6.4-13.1-12.5c0.6,3.6,1.7,7,4.3,9.8
	C134.6,40.8,141,43.6,144,49.4L144,49.4L144,49.4L144,49.4z"/>
<path class="st0" d="M146.7,34.2c-0.8-1-1.3-2.3-2.5-3c1.3,1.8,1.8,3.8,2.1,6.4c0.3,2.5-0.1,4.7-0.3,6.1c-0.2,1.4-0.3,3.9-0.3,5.8
	h5.3C151.2,44,149.7,38.3,146.7,34.2L146.7,34.2z"/>
<path class="st0" d="M132.6,39.9c0.4,2.4,1.2,4.6,2,6.8c0.4,1,0.9,1.9,1.4,2.8h5.8C138.8,46.2,134.6,43.7,132.6,39.9L132.6,39.9z"/>
<path class="st0" d="M127.9,25.9c2.5,3.1,5.9,6,9.2,8.4c0,0-0.4-0.8-0.5-1.4c-0.7-3.4-3-9.1-6.8-12.6c-3.3-2.9-7.4-3.9-11.2-5.5
	c0,0,0.2,0.4,1.8,1.8C122,18.1,125.5,22.8,127.9,25.9L127.9,25.9z"/>
<path class="st0" d="M144.8,86.9c-0.4,0.5-0.8,0.9-1.2,1.4c-1.5,1.8-2.7,3.7-4,5.5c-0.4,0.7-1.7,2.2-2.2,2.9
	c-0.1,0.1-0.4,0.4-0.2,0.1c1.9-3.1,3-6,3.2-9.5c0-1,0-2-0.1-3h-4.6c-0.5,6.7-0.6,13.9-4,19.4l0,0c3.4-2.6,6.9-4.7,10.4-7
	c4.8-3.3,8.7-7.5,10.9-12.5h-5.4C146.6,85.2,145.7,86.1,144.8,86.9L144.8,86.9z"/>
<path class="st0" d="M21.5,84.9c-0.4,3.6,0.2,7.2,1.7,10.2c0.3,0.9,1.2,1.7,1.4,2.6c-0.4,0-2.3-2.9-3.3-4.3c-2-3.4-5.2-6.2-8-9.1h-5
	c0,0,0,0,0,0c3.5,9.7,14.1,14.8,21.9,20.1c-0.7-1.9-1.9-3.6-2.4-5.5c-1.1-4.7-1.3-9.7-1.8-14.6h-4.5C21.5,84.5,21.5,84.7,21.5,84.9
	L21.5,84.9z"/>
<path class="st0" d="M144.2,99.1c-6.1,4.6-13.2,5.9-19,11.7c-0.5,0.5-1.9,1.4-1.9,1c2.1-1.8,4-4.1,5.3-6.4
	c3.5-5.9,2.1-13.7,5.2-19.8c-1.8,2-3.1,4.2-4.7,6.4c-5,7.5-4.5,17.3-11.9,23.7c4.4-1.5,9.2-1.9,13.7-3.1c8.7-2.8,18-11.5,19.1-20.8
	C148.9,94.6,146.7,97.1,144.2,99.1L144.2,99.1z"/>
<path class="st0" d="M44.8,116.2c-6-4.9-7-12.2-9.7-18.6c-1.8-4-4.4-7.6-7.3-11.1c3.2,6.4,1.7,14.7,6,20.7c1.2,2,3.1,3.7,4.8,5.2
	c0,0,0.1,0.1-0.1,0.1c-0.5-0.1-2.9-1.7-4.3-2.9c-7.3-6-18.2-6.8-22.6-16.7c1.2,7.2,6.8,13.8,13.1,17.7
	C30.6,114.6,38.2,114,44.8,116.2L44.8,116.2z"/>
<path class="st0" d="M114.4,117.7c-2.3,0.2-6.7,1.3-6.8,1c-0.1-0.3,3.7-1,5.3-2c6.4-3.2,6.9-10.3,10.8-15.4
	c-5.3,3.6-9.5,8.3-14.2,12.8c-3.2,2.9-7.1,4.1-11.2,5v0.1l1.6,0.2c8.5,1.4,17.3,5.4,26.2,2.1c5.1-1.8,10.8-6.1,13-11.2
	C132.9,117.8,123,116.4,114.4,117.7L114.4,117.7z"/>
<path class="st0" d="M60.4,120.1c1.1-0.3,2.4-0.2,3.5-0.6c-4.2-0.9-8.3-2.2-11.6-5.2c-4.7-4.4-8.9-8.9-14-12.3
	c4,5.3,5,13.2,12.3,15.8c1.2,0.6,3.8,1,3.9,1.3c0,0.3-2.6-0.3-3.9-0.5c-9.3-2.1-20.7,0.6-27.7-7.4c2.6,5.2,8.1,9.3,13.3,11
	C44.3,125,52.8,121.9,60.4,120.1L60.4,120.1z"/>
<path class="st0" d="M109.1,125.1l-6.1-2.4c-5.4-2.8-12.2-4.1-18.6-3c-0.7,0.1-1.6,0.9-3.1,0.9c-1.5,0-2.5-0.8-3.1-0.9
	c-8.4-1.1-17.2,2.4-24.9,5.7c-5.7,2.3-13.2,1.9-18.2-1.6c2.5,3.1,5.8,5,9.2,6.3c6.4,2.5,14,0.8,19.3-2.9c4.5-2.5,8.4-7.5,14.4-5.7
	c-6.1,2.8-11.6,6.8-16.7,11.9l3.1,2.6c3.7-4.9,8.5-8.9,13.5-12c1.1-0.6,2.2-1.3,3.4-1.4c6.1,3,11.5,8,16.3,13.3c1-0.8,2.1-1.8,3-2.7
	c-5.1-4.9-10.6-8.7-16.6-11.5c1-0.3,2.1-0.3,3.3-0.3c3.2-0.2,5.4,2.1,7.9,3.6c6.1,4.7,14.3,7.7,22.2,4.8c3.5-1.3,6.9-3.5,9.4-6.6
	C122.1,126.6,114.8,127.2,109.1,125.1L109.1,125.1z"/>
<path class="st0" d="M81.9,113.2v-8.1c2.6-0.1,5.1-0.4,7.6-0.9c0,0,0,0,0,0c0.3,0,0.7,0.1,0.7,0.1c2,0.4,3.4,3.6,5.6,1.7
	c0.8-0.9,2.1-0.8,2.6-2.1c1.3-0.5,1.6-1.8,2.5-2.6c0.3-0.7,0.7-1.3,1.2-1.7c0-0.1,0-0.2,0-0.2c2.6-1.5,4.9-3.3,7.1-5.3l5.7,5.7
	C106.2,107.8,94.7,112.9,81.9,113.2L81.9,113.2z M81.9,95.8c0.2,0.1,0.3,0.3,0.5,0.4c0,0,0.1,0.1,0.1,0.1c0.9,0.4,2.6-0.4,3.1,0.7
	c-0.3,0.6-0.8,1.2-0.6,1.9c0.4,1,1,2.3,2.2,2.3c0.3,0.4,0.7,0.5,1.2,0.7c-0.3,0.1-1,0.2-1,0.2c-1.8,0.3-3.6,0.5-5.4,0.6V95.8
	L81.9,95.8z M101.2,87.7c0.1-0.1,0.2-0.3,0.2-0.3c0.2-0.2,0.4-0.4,0.6-0.6l3.8,3.8c0.1,0.5,0.3,0.9,0.8,1.2c0,0,0.1,0,0.1,0
	c0.1,0,0.1,0,0.2,0c0,0,0,0,0,0l0.3,0.3c-1.5,1.4-3.1,2.7-4.8,3.8c0.1-0.4,0.9-0.7,0.5-1.2c-1.4-1.3,0.8-2.3,1.3-3.5
	c-0.2-1.2-1.6-1.9-2.6-2.3C101.1,88.7,101.3,88.1,101.2,87.7L101.2,87.7z M79.3,102.6c-9.9-0.3-18.9-4.3-25.7-10.7c0,0,0,0,0,0
	c-0.1-0.1-0.1-0.2-0.1-0.2l0.2-0.1c0.4,0.1,0.8,0.4,1.1,0.6c0.1,0.1,0.2,0.1,0.3,0.2c0.3,0.2,0.7,0.3,1.1,0.2c1.4-0.2,2.5-1.3,4-1
	c0.7,0,1.6,0,2-0.6c-0.1-0.2-0.1-0.4-0.2-0.6c0-0.2-0.1-0.4-0.1-0.6c-0.2-0.2-0.3-0.4-0.4-0.7c0.1,0,0.2,0,0.3-0.1c0,0,0,0,0,0
	c4.6,3.4,10.1,5.5,16.1,6.1c0.1,0.1,0.1,0.2,0.1,0.4c0.1,0,0.3,0,0.4,0l0.6-0.3v0.1c0.1-0.1,0.2-0.1,0.3-0.1V102.6L79.3,102.6z
	 M79.3,113.2c-13-0.3-24.7-5.6-33.4-14l5.7-5.7c7.3,6.9,17,11.3,27.7,11.6V113.2L79.3,113.2z M126,84.3c-2.3,5-5.5,9.5-9.2,13.5
	l-5.7-5.7c2.2-2.4,4.2-5,5.8-7.8h-3.1c-1.3,2-2.8,4-4.4,5.7c0.1-0.2,0.1-0.3,0.2-0.5c0.1-0.8-0.6-1.5-0.5-2.4
	c-0.7-0.6-0.7-1.9-1.8-1.8c-0.4-0.1-0.6,0.3-0.6,0.6c0,0.2,0.1,0.4-0.1,0.5c0,0.2,0,0.5,0,0.7c0,0.2,0,0.4,0,0.5l-2.7-2.7
	c0.2-0.2,0.4-0.4,0.6-0.6H100H75.7c-0.7,0.3-1.3,0.6-1.8,1.2c-0.3,0.7-0.2,1.8-1.2,2.1c0.1,1.5,1.4,2.7,2.3,3.8l0,0
	c0,0.2,0.1,0.5,0.1,0.5c-5.6-1-10.6-3.7-14.6-7.4l0.2-0.2h-2.2h-1c0,0,0,0,0,0v0.1c0,0,0,0,0-0.1H41c0.1,0.1,0.2,0.2,0.4,0.2
	c1.1-0.3,0.7,1.3,1.5,1.7c0.6,0.4,1,1.3,1.9,0.9l0.3-0.4c0.3,0.2,0.1,0.7,0.3,1c0.4,0.8,1.3,1.4,2.2,1.7c0.6,0.7,1.2,1.4,1.9,2
	c0.1,0.1,0.1,0.2,0.2,0.2L44,97.4c-3.6-3.8-6.6-8.2-8.8-13.1h-2.9c8.1,18.6,26.7,31.5,48.3,31.5c21.6,0,40.1-13,48.3-31.5H126
	L126,84.3z"/>
<path class="st0" d="M142.4,87.4c0.1-1,0.3-2,0.3-3h1.8C143.8,85.2,142.9,86.4,142.4,87.4L142.4,87.4L142.4,87.4z"/>
<g>
	<line class="st1" x1="188.9" y1="88.3" x2="714.8" y2="88.3"/>
	<g>
		<path class="st0" d="M195.8,119.3h-3.5v7.9h-3.4v-20.6h5.5c3,0,4.1,0.3,5.2,1c1.8,1.1,2.8,2.9,2.8,5.2
			C202.4,116.8,199.5,119.3,195.8,119.3z M197.8,110.4c-0.6-0.7-1.5-1-2.9-1h-2.7v7.2h2.7c2.5,0,3.7-1.2,3.7-3.6
			C198.6,111.8,198.4,111,197.8,110.4z"/>
		<path class="st0" d="M212.7,115c-0.3-0.1-0.6-0.2-0.9-0.2c-1.4,0-2.5,1-2.8,2.2v10.2h-3.3v-10.6c0-1.9-0.2-3.1-0.5-4l3-0.8
			c0.4,0.7,0.6,1.5,0.6,2.4c1.2-1.6,2.4-2.4,3.8-2.4c0.5,0,0.8,0.1,1.2,0.2L212.7,115z"/>
		<path class="st0" d="M221.5,127.5c-4.1,0-6.6-3.1-6.6-7.9c0-4.8,2.6-7.9,6.6-7.9c4.3,0,6.7,3.2,6.7,7.9
			C228.2,124.5,225.6,127.5,221.5,127.5z M221.5,114.2c-2.1,0-3,1.6-3,5.2c0,4.4,1.1,5.7,3.1,5.7c1.9,0,3-1.6,3-5.4
			C224.6,115.5,223.4,114.2,221.5,114.2z"/>
		<path class="st0" d="M243.6,114.5c-0.6,0-1.1-0.1-1.2-0.1c0.1,0.1,1,1.1,1,2.6c0,2.6-2.2,4.6-5.7,4.6c-1.1,0.4-2,1-2,1.4
			c0,0.6,0.2,0.6,3.7,0.6c2.4,0,5,1.2,5,4.3c0,3.2-2.7,4.9-6.7,4.9c-3.9,0-6.7-1.3-6.7-4.1c0-0.7,0.3-1.6,0.3-1.6h3.1
			c0,0-0.2,0.6-0.2,1.1c0,1.4,1.2,2.2,3.3,2.2c2.3,0,3.6-1,3.6-2.3c0-1.6-1.4-2.1-4.2-2.1c-4,0-4.9-0.8-4.9-2.3
			c0-1.5,1.2-2.1,2.9-2.6c-2.3-0.7-3.4-2.1-3.4-4.3c0-3.1,2.4-5.1,6-5.1c2.1,0,3.4,0.8,4.6,0.8c1,0,1.9-0.4,2.7-1l1.5,2.1
			C245.4,114.3,244.6,114.5,243.6,114.5z M237.4,114.2c-1.7,0-2.6,0.9-2.6,2.6c0,1.7,1,2.5,2.6,2.5c1.7,0,2.6-0.9,2.6-2.6
			C239.9,115.1,239.1,114.2,237.4,114.2z"/>
		<path class="st0" d="M255.5,115c-0.3-0.1-0.6-0.2-0.9-0.2c-1.4,0-2.5,1-2.8,2.2v10.2h-3.3v-10.6c0-1.9-0.2-3.1-0.5-4l3-0.8
			c0.4,0.7,0.6,1.5,0.6,2.4c1.2-1.6,2.4-2.4,3.8-2.4c0.5,0,0.8,0.1,1.2,0.2L255.5,115z"/>
		<path class="st0" d="M261.4,120.5v0.2c0,2.1,0.8,4.3,3.7,4.3c1.4,0,2.6-0.5,3.7-1.5l1.3,2c-1.6,1.3-3.4,2-5.4,2
			c-4.3,0-6.9-3.1-6.9-7.9c0-2.6,0.6-4.4,1.9-5.9c1.2-1.4,2.7-2,4.6-2c1.5,0,2.9,0.4,4.1,1.5c1.3,1.2,2,3,2,6.5v0.7H261.4z
			 M264.3,114.2c-1.8,0-2.9,1.5-2.9,3.9h5.6C267,115.7,265.9,114.2,264.3,114.2z"/>
		<path class="st0" d="M278.5,127.6c-1.8,0-3.8-0.6-5.8-1.7l1.2-2.4c1.3,0.8,3.2,1.6,4.9,1.6c1.4,0,2.4-0.9,2.4-2.1
			c0-1.2-0.7-1.8-2.4-2.1l-1.8-0.4c-2.3-0.5-3.6-2-3.6-4.1c0-2.8,2.3-4.8,5.6-4.8c2.1,0,3.7,0.6,5,1.3l-1.1,2.3
			c-1.4-0.7-2.5-1.1-3.7-1.1c-1.4,0-2.3,0.8-2.3,1.9c0,0.9,0.5,1.4,2,1.8l1.9,0.5c3,0.8,3.8,2.4,3.8,4.2
			C284.6,125.5,282.2,127.6,278.5,127.6z"/>
		<path class="st0" d="M292.6,127.6c-1.8,0-3.8-0.6-5.8-1.7l1.2-2.4c1.3,0.8,3.2,1.6,4.9,1.6c1.4,0,2.4-0.9,2.4-2.1
			c0-1.2-0.7-1.8-2.4-2.1l-1.8-0.4c-2.3-0.5-3.6-2-3.6-4.1c0-2.8,2.3-4.8,5.6-4.8c2.1,0,3.7,0.6,5,1.3l-1.1,2.3
			c-1.4-0.7-2.5-1.1-3.7-1.1c-1.4,0-2.3,0.8-2.3,1.9c0,0.9,0.5,1.4,2,1.8l1.9,0.5c3,0.8,3.8,2.4,3.8,4.2
			C298.7,125.5,296.3,127.6,292.6,127.6z"/>
		<path class="st0" d="M315.7,127.5c-1.5,0-2.7-0.6-3.7-1.7c-0.1,0.8-0.2,1-0.4,1.4h-3c0.3-0.7,0.4-1.3,0.4-3.4v-14.2
			c0-1.7-0.1-2.8-0.4-3.6l3.4-0.7c0.2,1.1,0.2,1.8,0.2,3v3.5c0,1-0.1,1.4-0.1,1.4l0.1,0c1-1,2.1-1.5,3.6-1.5c3.6,0,5.9,2.9,5.9,7.6
			C321.7,124.2,319.2,127.5,315.7,127.5z M315.1,114.5c-1.4,0-2.3,0.8-2.9,1.5v7.3c0.7,0.7,1.6,1.3,2.8,1.3c2.1,0,2.9-1.5,2.9-5.3
			C318,116.7,317.5,114.5,315.1,114.5z"/>
		<path class="st0" d="M332.1,127.5c-1.2,3.6-2.3,5.4-5.9,6.1l-1.1-2.1c2.1-0.6,3.2-1.4,4.1-4.3h-1c-0.4-1.7-1-3.3-1.4-4.7
			l-3.4-10.1l3.3-0.6l2.8,9.2c0.2,0.9,0.8,3.2,0.8,3.4c0-0.1,0.6-2.3,1.1-4.1l2.5-8.1h3.5L332.1,127.5z"/>
		<path class="st0" d="M348.2,109.9c-1.2,0-2.1-1-2.1-2.2c0-1.2,1-2.2,2.2-2.2c1.2,0,2.1,1,2.1,2.2
			C350.4,108.9,349.5,109.9,348.2,109.9z M346.6,127.2v-14.8l3.3-0.6v15.4H346.6z"/>
		<path class="st0" d="M363.2,127.2v-10c0-2.1-0.5-2.6-1.7-2.6c-1,0-2.3,0.7-3.3,1.7v10.9H355v-11.1c0-1.6-0.1-2.5-0.6-3.6l3-0.8
			c0.4,0.7,0.5,1.3,0.5,2.1c1.6-1.4,3-2.1,4.6-2.1c2.3,0,3.9,1.4,3.9,4.2v11.2H363.2z"/>
		<path class="st0" d="M379.7,127.2v-10c0-2.1-0.5-2.6-1.7-2.6c-1,0-2.3,0.7-3.3,1.7v10.9h-3.2v-11.1c0-1.6-0.1-2.5-0.6-3.6l3-0.8
			c0.4,0.7,0.5,1.3,0.5,2.1c1.6-1.4,3-2.1,4.6-2.1c2.3,0,3.9,1.4,3.9,4.2v11.2H379.7z"/>
		<path class="st0" d="M393.6,127.5c-4.1,0-6.6-3.1-6.6-7.9c0-4.8,2.6-7.9,6.6-7.9c4.3,0,6.7,3.2,6.7,7.9
			C400.3,124.5,397.7,127.5,393.6,127.5z M393.6,114.2c-2.1,0-3,1.6-3,5.2c0,4.4,1.1,5.7,3.1,5.7c1.9,0,3-1.6,3-5.4
			C396.7,115.5,395.5,114.2,393.6,114.2z"/>
		<path class="st0" d="M410.1,127.2h-2.9l-5.4-15l3.4-0.5l2.6,8.1c0.5,1.6,0.9,3.4,0.9,3.4h0.1c0,0,0.3-1.8,0.9-3.5l2.5-7.6h3.4
			L410.1,127.2z"/>
		<path class="st0" d="M428.2,127.8c-0.9-0.4-1.7-1.1-2.1-2c-1.2,1.4-2.5,1.8-4.1,1.8c-3.4,0-5-1.9-5-4.5c0-3.5,2.6-5.2,7.4-5.2h1
			V117c0-1.7-0.3-2.6-2.1-2.6c-2.2,0-4.5,1.7-4.5,1.7l-1.5-2.4c2.3-1.4,4.1-2.1,6.4-2.1c2.3,0,3.9,0.9,4.6,2.5
			c0.3,0.7,0.3,1.5,0.2,3.7l-0.1,4.3c0,2,0.1,2.7,1.3,3.5L428.2,127.8z M424.8,120.1c-3.3,0-4.3,1-4.3,2.9c0,1.4,0.8,2.3,2.1,2.3
			c1,0,2.1-0.6,2.7-1.6l0.1-3.6C425.4,120.1,425.1,120.1,424.8,120.1z"/>
		<path class="st0" d="M437.6,127.5c-2.9,0-3.9-1.7-3.9-3.9v-9.3H432v-2.3h1.7c0-1.3,0-2.6,0.1-3.7l3.4-0.8c-0.1,1.2-0.3,3-0.3,4.5
			h3.6l-0.9,2.3h-2.8v8.4c0,1.9,0.4,2.4,1.8,2.4c0.4,0,0.8-0.1,1.4-0.3l0.4,2C439.6,127.3,438.6,127.5,437.6,127.5z"/>
		<path class="st0" d="M445.5,109.9c-1.2,0-2.1-1-2.1-2.2c0-1.2,1-2.2,2.2-2.2c1.2,0,2.1,1,2.1,2.2
			C447.7,108.9,446.7,109.9,445.5,109.9z M443.8,127.2v-14.8l3.3-0.6v15.4H443.8z"/>
		<path class="st0" d="M457.8,127.5c-4.1,0-6.6-3.1-6.6-7.9c0-4.8,2.6-7.9,6.6-7.9c4.3,0,6.7,3.2,6.7,7.9
			C464.4,124.5,461.8,127.5,457.8,127.5z M457.7,114.2c-2.1,0-3,1.6-3,5.2c0,4.4,1.1,5.7,3.1,5.7c1.9,0,3-1.6,3-5.4
			C460.8,115.5,459.6,114.2,457.7,114.2z"/>
		<path class="st0" d="M476.7,127.2v-10c0-2.1-0.5-2.6-1.7-2.6c-1,0-2.3,0.7-3.3,1.7v10.9h-3.2v-11.1c0-1.6-0.1-2.5-0.6-3.6l3-0.8
			c0.4,0.7,0.5,1.3,0.5,2.1c1.6-1.4,3-2.1,4.6-2.1c2.3,0,3.9,1.4,3.9,4.2v11.2H476.7z"/>
	</g>
	<g>
		<path class="st0" d="M191.9,69.7V49.5H189v20.3H191.9L191.9,69.7z M210.4,69.7V49.5h-2.7l0.1,9.9c0,2.2,0.2,5.4,0.3,6l-0.2,0.1
			c-0.1-0.6-1.1-3.2-2-4.9l-5.6-11.2h-3.3v20.3h2.8l-0.1-10.6c0-1.9-0.1-3.9-0.2-5.6l0.2,0c0.4,1.2,1.4,3.5,2.5,5.6l5.3,10.8H210.4
			L210.4,69.7z M229.5,59.6c0-2.8-0.6-5.1-1.8-6.8c-1.9-2.6-4.1-3.3-7.6-3.3h-4.7v20.3h5.1c3.5,0,5.4-1,6.8-2.7
			C228.6,65.3,229.5,62.9,229.5,59.6L229.5,59.6z M226.3,59.9c0,2-0.4,3.8-1.1,5.2c-0.9,1.6-2.4,2.3-4.7,2.3h-2.2V51.7h2.3
			c2,0,3.1,0.4,4.3,1.8C226.1,55,226.3,57.1,226.3,59.9L226.3,59.9z M247.1,63.4V49.5h-2.8v13.5c0,1.6-0.2,2.7-0.7,3.4
			c-0.6,0.9-1.8,1.3-3.3,1.3c-1.6,0-2.6-0.5-3.2-1.1c-0.6-0.7-0.7-2.5-0.7-3.9V49.5h-2.8v14.1c0,2.1,0.1,2.7,0.6,3.6
			c1,1.9,3.1,2.8,6.1,2.8c3.1,0,4.8-1.1,5.8-2.4C247,66.5,247.1,65.9,247.1,63.4L247.1,63.4z M265.1,63.8c0-3.1-2.2-4.9-4.9-5.7
			l-2.4-0.7c-2.2-0.6-3-1.5-3-2.9c0-1.9,1.4-3.1,3.7-3.1c1.7,0,2.9,0.4,4.8,1.6l1.3-2c-1.8-1.3-4-1.9-6.2-1.9c-4,0-6.7,2.4-6.7,5.9
			c0,2.9,1.7,4.4,4.8,5.2l2.1,0.6c2.3,0.6,3.4,1.8,3.4,3.4c0,2.2-1.7,3.5-4.4,3.5c-2,0-3.7-0.6-5.5-1.7l-1.1,2.2
			c2,1.2,4.2,1.8,6.5,1.8C262.8,70.1,265.1,66.6,265.1,63.8L265.1,63.8z M280.5,49.5h-13.6v2.3h5.3v17.9h2.8V51.8h5.3L280.5,49.5
			L280.5,49.5z M295.7,69.7c-0.4-0.6-2.1-3.3-2.9-4.7c-0.7-1.1-1.3-1.9-1.7-2.5c-0.4-0.5-0.8-1.1-1.8-1.9c3.4,0.1,5.4-2.4,5.4-5.6
			c0-2-0.9-3.3-1.8-4.2c-1-0.9-2.4-1.5-4.8-1.5h-5.7v20.3h2.8v-9c0.9,0,1.3,0.3,1.8,0.9c1.4,1.6,1.9,2.5,3.5,5.1
			c0.8,1.4,1.1,1.9,1.7,3H295.7L295.7,69.7z M291.7,55.1c0,1.2-0.4,2.1-1,2.7c-0.7,0.7-1.7,1-3.5,1h-2v-7.1h2.1
			c1.1,0,1.9,0.1,2.5,0.4C290.9,52.6,291.7,53.7,291.7,55.1L291.7,55.1z M301.6,69.7V49.5h-2.9v20.3H301.6L301.6,69.7z M320.8,69.7
			l-6.5-20.3h-3.5l-6.6,20.3h2.9l1.8-5.7h7l1.8,5.7H320.8L320.8,69.7z M315.2,61.6h-5.7c0.4-1,2.5-8.2,2.8-9.4h0.2
			C312.8,53.4,314.9,60.7,315.2,61.6L315.2,61.6z M333.9,67.4h-7.7V49.5h-2.9v20.3h10.1L333.9,67.4L333.9,67.4z M356.8,59.6
			c0-2.8-0.6-5.1-1.8-6.8c-1.9-2.6-4.1-3.3-7.6-3.3h-4.7v20.3h5.1c3.5,0,5.4-1,6.8-2.7C356,65.3,356.8,62.9,356.8,59.6L356.8,59.6z
			 M353.7,59.9c0,2-0.4,3.8-1.1,5.2c-0.9,1.6-2.4,2.3-4.7,2.3h-2.2V51.7h2.3c2,0,3.1,0.4,4.3,1.8C353.4,55,353.7,57.1,353.7,59.9
			L353.7,59.9z M372.3,69.7v-2.4h-8.5v-6.9h6.5v-2.4h-6.5v-6.2h7.8l0.4-2.3h-11v20.3H372.3L372.3,69.7z M389.7,49.5h-2.9l-4,12.2
			c-0.4,1.1-0.6,1.9-0.8,2.7c-0.2,0.7-0.3,1.1-0.4,1.5h-0.2c-0.1-0.4-0.2-0.9-0.3-1.5c-0.2-0.9-0.5-2-0.8-2.7l-3.9-12.2h-3.1
			l6.8,20.3h2.8L389.7,49.5L389.7,49.5z M403.7,69.7v-2.4h-8.5v-6.9h6.5v-2.4h-6.5v-6.2h7.8l0.4-2.3h-11v20.3H403.7L403.7,69.7z
			 M417.7,67.4H410V49.5h-2.9v20.3h10.1L417.7,67.4L417.7,67.4z M434.9,59.7c0-5.6-2.3-10.6-8.3-10.6c-5,0-8.2,3.7-8.2,10.4
			c0,6.1,2.8,10.5,8.3,10.5C431.9,70,434.9,65.9,434.9,59.7L434.9,59.7z M431.7,60c0,5.6-1.8,7.9-4.9,7.9c-4,0-5.2-3.5-5.2-8.7
			c0-5.2,1.4-7.9,5-7.9C430.5,51.3,431.7,54.5,431.7,60L431.7,60z M452,55.3c0-2.1-0.9-3.9-2.7-4.9c-1.1-0.7-2.2-0.9-4.8-0.9h-5.4
			v20.3h2.8v-7.9h3.4c2.1,0,3.2-0.4,4.3-1.2C451.3,59.2,452,57.6,452,55.3L452,55.3z M448.8,55.7c0,1.1-0.3,2-0.9,2.7
			c-0.6,0.8-1.5,1.1-2.9,1.1h-3.2v-7.7h2.6c1.6,0,2.6,0.3,3.3,1C448.5,53.4,448.8,54.4,448.8,55.7L448.8,55.7z M474.3,69.7
			l-1.7-20.3h-4L465,62c-0.4,1.4-0.6,2.7-0.7,3.2h-0.1c-0.1-0.4-0.3-1.7-0.7-3.3l-3.4-12.4h-4l-1.8,20.3h2.8l1-13.4
			c0.1-1.1,0.2-3,0.2-3.7h0.1c0.1,0.5,0.5,2.1,0.9,3.7l3.7,13.4h2.4l4-14.1c0.3-1.1,0.6-2.4,0.7-3h0.1c0,0.6,0.1,2.2,0.1,3.3
			l1.1,13.8H474.3L474.3,69.7z M489.9,69.7v-2.4h-8.5v-6.9h6.5v-2.4h-6.5v-6.2h7.8l0.4-2.3h-11v20.3H489.9L489.9,69.7z M506.8,69.7
			V49.5h-2.7l0.1,9.9c0,2.2,0.2,5.4,0.3,6l-0.2,0.1c-0.1-0.6-1.1-3.2-2-4.9l-5.7-11.2h-3.3v20.3h2.8L496,59.1c0-1.9-0.1-3.9-0.2-5.6
			l0.2,0c0.4,1.2,1.4,3.5,2.5,5.6l5.3,10.8H506.8L506.8,69.7z M523.5,49.5h-13.6v2.3h5.3v17.9h2.8V51.8h5.3L523.5,49.5L523.5,49.5z
			 M547.7,59.7c0-5.6-2.4-10.6-8.3-10.6c-5,0-8.2,3.7-8.2,10.4c0,6.1,2.8,10.5,8.4,10.5C544.6,70,547.7,65.9,547.7,59.7L547.7,59.7z
			 M544.4,60c0,5.6-1.8,7.9-4.9,7.9c-4,0-5.2-3.5-5.2-8.7c0-5.2,1.4-7.9,5-7.9C543.2,51.3,544.4,54.5,544.4,60L544.4,60z M565,69.7
			c-0.4-0.6-2.1-3.3-2.9-4.7c-0.7-1.1-1.3-1.9-1.7-2.5c-0.3-0.5-0.8-1.1-1.8-1.9c3.4,0.1,5.4-2.4,5.4-5.6c0-2-0.9-3.3-1.8-4.2
			c-1-0.9-2.4-1.5-4.8-1.5h-5.7v20.3h2.8v-9c0.9,0,1.3,0.3,1.8,0.9c1.4,1.6,1.9,2.5,3.5,5.1c0.8,1.4,1.1,1.9,1.7,3H565L565,69.7z
			 M561.1,55.1c0,1.2-0.4,2.1-1,2.7c-0.7,0.7-1.7,1-3.5,1h-2v-7.1h2.1c1.1,0,1.9,0.1,2.5,0.4C560.3,52.6,561.1,53.7,561.1,55.1
			L561.1,55.1z M582,68.4v-9.5h-7l0.5,2.3h3.7V67c-0.8,0.5-1.9,0.8-3,0.8c-1.7,0-3.5-0.7-4.4-1.8c-0.9-1.2-1.4-3.3-1.4-6.1
			c0-2.4,0.2-3.9,1.1-5.8c0.9-1.8,2.4-2.6,4.4-2.6c1.6,0,2.8,0.4,4.3,1.5l1.3-1.8c-1.6-1.4-3.5-2-5.7-2c-2,0-3.6,0.5-5.1,1.7
			c-2.3,1.9-3.5,4.7-3.5,8.8c0,3.3,0.7,5.7,2.4,7.6c1.6,1.8,3.7,2.7,6.4,2.7C578.2,70,580.4,69.4,582,68.4L582,68.4z M601.1,69.7
			l-6.5-20.3H591l-6.6,20.3h2.9l1.8-5.7h7l1.8,5.7H601.1L601.1,69.7z M595.5,61.6h-5.7c0.4-1,2.5-8.2,2.8-9.4h0.2
			C593,53.4,595.1,60.7,595.5,61.6L595.5,61.6z M617.1,69.7V49.5h-2.7l0.1,9.9c0,2.2,0.2,5.4,0.3,6l-0.2,0.1c-0.1-0.6-1.1-3.2-2-4.9
			l-5.6-11.2h-3.3v20.3h2.8l-0.1-10.6c0-1.9-0.1-3.9-0.2-5.6l0.2,0c0.4,1.2,1.4,3.5,2.5,5.6l5.3,10.8H617.1L617.1,69.7z M624.9,69.7
			V49.5h-2.9v20.3H624.9L624.9,69.7z M641.4,67.4H634c-0.7,0-1.4,0-2,0c0.4-0.6,0.8-1.2,1.3-1.9l8.1-13.7v-2.3h-11.6l-0.7,2.3h6.9
			c1,0,1.7,0,2.3-0.1c-0.4,0.5-1,1.3-1.4,2.1l-8.2,13.7v2.2h12.1L641.4,67.4L641.4,67.4z M659.3,69.7l-6.5-20.3h-3.5l-6.6,20.3h2.9
			l1.8-5.7h7l1.8,5.7H659.3L659.3,69.7z M653.7,61.6H648c0.4-1,2.5-8.2,2.8-9.4h0.2C651.2,53.4,653.4,60.7,653.7,61.6L653.7,61.6z
			 M671.7,49.5h-13.6v2.3h5.3v17.9h2.8V51.8h5.3L671.7,49.5L671.7,49.5z M676.5,69.7V49.5h-2.9v20.3H676.5L676.5,69.7z M697.2,59.7
			c0-5.6-2.4-10.6-8.3-10.6c-5,0-8.2,3.7-8.2,10.4c0,6.1,2.8,10.5,8.3,10.5C694.1,70,697.2,65.9,697.2,59.7L697.2,59.7z M693.9,60
			c0,5.6-1.8,7.9-4.9,7.9c-4,0-5.2-3.5-5.2-8.7c0-5.2,1.4-7.9,5-7.9C692.7,51.3,693.9,54.5,693.9,60L693.9,60z M714.8,69.7V49.5
			h-2.7l0.1,9.9c0,2.2,0.2,5.4,0.3,6l-0.2,0.1c-0.1-0.6-1.1-3.2-2-4.9l-5.7-11.2h-3.3v20.3h2.8L704,59.1c0-1.9-0.1-3.9-0.2-5.6
			l0.2,0c0.4,1.2,1.4,3.5,2.5,5.6l5.3,10.8H714.8L714.8,69.7z"/>
		<path class="st0" d="M202.5,28.1V14.2h-2.8v13.5c0,1.6-0.2,2.7-0.7,3.4c-0.6,0.9-1.8,1.3-3.3,1.3c-1.6,0-2.6-0.5-3.2-1.1
			c-0.6-0.7-0.7-2.5-0.7-3.9V14.2h-2.8v14.1c0,2.1,0.1,2.7,0.6,3.6c1,1.8,3.1,2.8,6.1,2.8c3.1,0,4.8-1.1,5.8-2.4
			C202.4,31.2,202.5,30.6,202.5,28.1L202.5,28.1z M220.9,34.4V14.2h-2.7l0.1,9.9c0,2.2,0.2,5.4,0.3,6l-0.2,0.1
			c-0.1-0.6-1.1-3.2-2-4.9l-5.6-11.2h-3.3v20.3h2.8l-0.1-10.6c0-1.9-0.1-3.9-0.2-5.6l0.2,0c0.4,1.2,1.4,3.5,2.5,5.6l5.3,10.8H220.9
			L220.9,34.4z M228.8,34.4V14.2h-2.9v20.3H228.8L228.8,34.4z M245.5,14.2h-13.6v2.3h5.3v17.9h2.8V16.5h5.3L245.5,14.2L245.5,14.2z
			 M258.7,34.4V32h-8.5V25h6.5v-2.4h-6.5v-6.2h7.8l0.4-2.3h-11v20.3H258.7L258.7,34.4z M276.2,24.3c0-2.8-0.6-5.1-1.8-6.8
			c-1.9-2.6-4.1-3.3-7.6-3.3h-4.7v20.3h5.1c3.5,0,5.4-1,6.8-2.7C275.3,30,276.2,27.6,276.2,24.3L276.2,24.3z M273,24.7
			c0,2-0.4,3.8-1.1,5.2c-0.9,1.6-2.4,2.3-4.7,2.3H265V16.4h2.3c2,0,3.1,0.4,4.3,1.8C272.7,19.7,273,21.8,273,24.7L273,24.7z
			 M300.4,34.4V14.2h-2.7l0.1,9.9c0,2.2,0.2,5.4,0.3,6l-0.2,0.1c-0.1-0.6-1.1-3.2-2-4.9l-5.6-11.2h-3.3v20.3h2.8l-0.1-10.6
			c0-1.9-0.1-3.9-0.2-5.6l0.2,0c0.4,1.2,1.4,3.5,2.5,5.6l5.3,10.8H300.4L300.4,34.4z M319.6,34.4l-6.5-20.3h-3.5l-6.6,20.3h2.9
			l1.8-5.7h7l1.8,5.7H319.6L319.6,34.4z M314,26.3h-5.7c0.4-1,2.5-8.2,2.8-9.4h0.2C311.6,18.2,313.7,25.4,314,26.3L314,26.3z
			 M332.1,14.2h-13.6v2.3h5.3v17.9h2.8V16.5h5.3L332.1,14.2L332.1,14.2z M336.9,34.4V14.2H334v20.3H336.9L336.9,34.4z M357.5,24.4
			c0-5.6-2.4-10.6-8.3-10.6c-5,0-8.2,3.7-8.2,10.4c0,6.1,2.8,10.5,8.3,10.5C354.5,34.7,357.5,30.6,357.5,24.4L357.5,24.4z
			 M354.3,24.7c0,5.6-1.8,7.9-4.9,7.9c-4,0-5.2-3.5-5.2-8.7c0-5.2,1.4-7.9,5-7.9C353,16,354.3,19.2,354.3,24.7L354.3,24.7z
			 M375.1,34.4V14.2h-2.7l0.1,9.9c0,2.2,0.2,5.4,0.3,6l-0.2,0.1c-0.1-0.6-1.1-3.2-2-4.9l-5.6-11.2h-3.3v20.3h2.8l-0.1-10.6
			c0-1.9-0.1-3.9-0.2-5.6l0.2,0c0.4,1.2,1.4,3.5,2.5,5.6l5.3,10.8H375.1L375.1,34.4z M393.3,28.5c0-3.1-2.2-4.9-4.9-5.7l-2.4-0.7
			c-2.2-0.6-3-1.5-3-2.9c0-1.9,1.4-3.1,3.7-3.1c1.7,0,2.9,0.4,4.8,1.6l1.3-2c-1.8-1.3-4-1.9-6.2-1.9c-4,0-6.7,2.4-6.7,5.9
			c0,2.9,1.7,4.4,4.8,5.2l2.1,0.6c2.3,0.6,3.4,1.8,3.4,3.4c0,2.2-1.7,3.5-4.4,3.5c-2,0-3.7-0.6-5.5-1.7l-1.1,2.2
			c2,1.2,4.2,1.8,6.5,1.8C390.9,34.8,393.3,31.3,393.3,28.5L393.3,28.5z"/>
	</g>
</g>
</svg>
